<svg xmlns="http://www.w3.org/2000/svg" viewBox="0 0 326 325.77"><defs><style>.cls-1,.cls-2{fill:#fff;}.cls-1{stroke:#fff;}.cls-1,.cls-2,.cls-3,.cls-4{stroke-miterlimit:10;stroke-width:10px;}.cls-2,.cls-3,.cls-4{stroke:#000;}.cls-4{fill:#4a148c;}</style></defs><title>logoonly</title><g id="Capa_1" data-name="Capa 1"><path class="cls-1" d="M254.89,391.28,412.44,313.6a1,1,0,0,0,.56-.9V155.39a1,1,0,0,0-.55-.89L254.9,75.72a1,1,0,0,0-.9,0L97.55,154.5a1,1,0,0,0-.55.89V312.71a1,1,0,0,0,.56.89L254,391.28A1,1,0,0,0,254.89,391.28Z" transform="translate(-92 -70.62)"/><path class="cls-2" d="M254.45,161.78,112.45,233a.92.92,0,0,1-1.45-.89v-70a1,1,0,0,1,.55-.9L253.55,90a1,1,0,0,1,1.45.89v70A1,1,0,0,1,254.45,161.78Z" transform="translate(-92 -70.62)"/><path class="cls-3" d="M398.45,305.78,256.44,377a.92.92,0,0,1-1.44-.89V305.5L397.55,234a1,1,0,0,1,1.45.89v70A1,1,0,0,1,398.45,305.78Z" transform="translate(-92 -70.62)"/><path class="cls-2" d="M111.55,305.78l142,71.25a.92.92,0,0,0,1.44-.89V305.5L112.45,234a1,1,0,0,0-1.45.89v70A1,1,0,0,0,111.55,305.78Z" transform="translate(-92 -70.62)"/><path class="cls-4" d="M255,306l122-61a12.3,12.3,0,0,0,0-22L255.45,162.22a1,1,0,0,0-.9,0L112.79,233.11a1,1,0,0,0,0,1.78Z" transform="translate(-92 -70.62)"/><path class="cls-2" d="M398.45,233.78,256.45,305a.92.92,0,0,1-1.45-.89v-70a1,1,0,0,1,.55-.9l142-71.24a1,1,0,0,1,1.45.89v70A1,1,0,0,1,398.45,233.78Z" transform="translate(-92 -70.62)"/><path class="cls-3" d="M255,234l142.21-71.11a1,1,0,0,0,0-1.78L255.45,90.22a1,1,0,0,0-.9,0L112.79,161.11a1,1,0,0,0,0,1.78Z" transform="translate(-92 -70.62)"/></g></svg>